<svg xmlns="http://www.w3.org/2000/svg" viewBox="0 0 1920 1080" width="1920" height="1080">
  <defs>
    <linearGradient id="auroraSky" x1="0%" y1="0%" x2="0%" y2="100%">
      <stop offset="0%" stop-color="#020617"/>
      <stop offset="50%" stop-color="#0f172a"/>
      <stop offset="100%" stop-color="#1e293b"/>
    </linearGradient>
    <linearGradient id="aurora1" x1="0%" y1="0%" x2="100%" y2="100%">
      <stop offset="0%" stop-color="#22c55e" stop-opacity="0"/>
      <stop offset="50%" stop-color="#22c55e" stop-opacity="0.6"/>
      <stop offset="100%" stop-color="#22c55e" stop-opacity="0"/>
    </linearGradient>
    <linearGradient id="aurora2" x1="100%" y1="0%" x2="0%" y2="100%">
      <stop offset="0%" stop-color="#06b6d4" stop-opacity="0"/>
      <stop offset="50%" stop-color="#06b6d4" stop-opacity="0.5"/>
      <stop offset="100%" stop-color="#06b6d4" stop-opacity="0"/>
    </linearGradient>
    <linearGradient id="aurora3" x1="0%" y1="100%" x2="100%" y2="0%">
      <stop offset="0%" stop-color="#a855f7" stop-opacity="0"/>
      <stop offset="50%" stop-color="#a855f7" stop-opacity="0.4"/>
      <stop offset="100%" stop-color="#a855f7" stop-opacity="0"/>
    </linearGradient>
    <filter id="auroraBlur" x="-50%" y="-50%" width="200%" height="200%">
      <feGaussianBlur in="SourceGraphic" stdDeviation="40"/>
    </filter>
  </defs>
  <rect width="100%" height="100%" fill="url(#auroraSky)"/>
  <g filter="url(#auroraBlur)">
    <path d="M-100 400 Q400 200 960 350 T2020 300" stroke="url(#aurora1)" stroke-width="150" fill="none"/>
    <path d="M-100 450 Q500 150 1100 400 T2020 250" stroke="url(#aurora2)" stroke-width="120" fill="none"/>
    <path d="M-100 350 Q600 100 1200 300 T2020 350" stroke="url(#aurora3)" stroke-width="100" fill="none"/>
  </g>
  <g fill="#fff">
    <circle cx="100" cy="100" r="1" opacity="0.9"/>
    <circle cx="300" cy="150" r="0.8" opacity="0.7"/>
    <circle cx="500" cy="80" r="1.2" opacity="0.8"/>
    <circle cx="800" cy="120" r="0.6" opacity="0.6"/>
    <circle cx="1200" cy="60" r="1" opacity="0.9"/>
    <circle cx="1400" cy="140" r="0.8" opacity="0.7"/>
    <circle cx="1600" cy="90" r="1.1" opacity="0.8"/>
    <circle cx="1800" cy="130" r="0.7" opacity="0.6"/>
  </g>
</svg>