<svg xmlns="http://www.w3.org/2000/svg" viewBox="0 0 1920 1080" width="1920" height="1080">
  <defs>
    <linearGradient id="geoBg" x1="0%" y1="0%" x2="100%" y2="100%">
      <stop offset="0%" stop-color="#1a1a2e"/>
      <stop offset="100%" stop-color="#16213e"/>
    </linearGradient>
  </defs>
  <rect width="100%" height="100%" fill="url(#geoBg)"/>
  <g stroke="#3b82f6" stroke-width="0.5" fill="none" opacity="0.3">
    <polygon points="0,0 200,0 100,173"/>
    <polygon points="200,0 400,0 300,173"/>
    <polygon points="400,0 600,0 500,173"/>
    <polygon points="600,0 800,0 700,173"/>
    <polygon points="800,0 1000,0 900,173"/>
    <polygon points="1000,0 1200,0 1100,173"/>
    <polygon points="1200,0 1400,0 1300,173"/>
    <polygon points="1400,0 1600,0 1500,173"/>
    <polygon points="1600,0 1800,0 1700,173"/>
    <polygon points="1800,0 2000,0 1900,173"/>
    <polygon points="100,173 300,173 200,346"/>
    <polygon points="300,173 500,173 400,346"/>
    <polygon points="500,173 700,173 600,346"/>
    <polygon points="700,173 900,173 800,346"/>
    <polygon points="900,173 1100,173 1000,346"/>
    <polygon points="1100,173 1300,173 1200,346"/>
    <polygon points="1300,173 1500,173 1400,346"/>
    <polygon points="1500,173 1700,173 1600,346"/>
    <polygon points="1700,173 1900,173 1800,346"/>
  </g>
  <g stroke="#8b5cf6" stroke-width="0.5" fill="none" opacity="0.2">
    <polygon points="0,346 200,346 100,519"/>
    <polygon points="200,346 400,346 300,519"/>
    <polygon points="400,346 600,346 500,519"/>
    <polygon points="600,346 800,346 700,519"/>
    <polygon points="800,346 1000,346 900,519"/>
    <polygon points="1000,346 1200,346 1100,519"/>
    <polygon points="1200,346 1400,346 1300,519"/>
    <polygon points="1400,346 1600,346 1500,519"/>
    <polygon points="1600,346 1800,346 1700,519"/>
    <polygon points="1800,346 2000,346 1900,519"/>
  </g>
  <g stroke="#ec4899" stroke-width="0.5" fill="none" opacity="0.15">
    <polygon points="100,519 300,519 200,692"/>
    <polygon points="300,519 500,519 400,692"/>
    <polygon points="500,519 700,519 600,692"/>
    <polygon points="700,519 900,519 800,692"/>
    <polygon points="900,519 1100,519 1000,692"/>
    <polygon points="1100,519 1300,519 1200,692"/>
    <polygon points="1300,519 1500,519 1400,692"/>
    <polygon points="1500,519 1700,519 1600,692"/>
    <polygon points="1700,519 1900,519 1800,692"/>
  </g>
  <g fill="#3b82f6" opacity="0.6">
    <circle cx="300" cy="173" r="3"/>
    <circle cx="700" cy="173" r="2"/>
    <circle cx="1100" cy="173" r="4"/>
    <circle cx="1500" cy="173" r="2"/>
    <circle cx="500" cy="519" r="3"/>
    <circle cx="1000" cy="346" r="4"/>
    <circle cx="1400" cy="519" r="2"/>
  </g>
</svg>